<mxfile host="Electron" agent="Mozilla/5.0 (Macintosh; Intel Mac OS X 10_15_7) AppleWebKit/537.36 (KHTML, like Gecko) draw.io/26.1.1 Chrome/132.0.6834.210 Electron/34.3.3 Safari/537.36" version="26.1.1">
  <diagram name="Page-1" id="qE2Mag07FJQGlA3-LMWE">
    <mxGraphModel dx="686" dy="878" grid="1" gridSize="10" guides="1" tooltips="1" connect="1" arrows="1" fold="1" page="1" pageScale="1" pageWidth="827" pageHeight="1169" math="0" shadow="0">
      <root>
        <mxCell id="0" />
        <mxCell id="1" parent="0" />
        <mxCell id="gYJAZDq5HR4Z8izXJF9J-1" value="Computer" style="rounded=1;whiteSpace=wrap;html=1;fontStyle=1;verticalAlign=top;" parent="1" vertex="1">
          <mxGeometry x="143" y="90" width="376" height="410" as="geometry" />
        </mxCell>
        <mxCell id="gYJAZDq5HR4Z8izXJF9J-2" value="CPU" style="rounded=0;whiteSpace=wrap;html=1;verticalAlign=top;" parent="1" vertex="1">
          <mxGeometry x="166" y="155" width="150" height="115" as="geometry" />
        </mxCell>
        <mxCell id="gYJAZDq5HR4Z8izXJF9J-3" value="&lt;div&gt;&lt;span&gt;count = 1000&lt;/span&gt;&lt;/div&gt;&lt;div&gt;&lt;br&gt;&lt;/div&gt;Main Memory" style="rounded=0;whiteSpace=wrap;html=1;fontStyle=1" parent="1" vertex="1">
          <mxGeometry x="166" y="405" width="330" height="60" as="geometry" />
        </mxCell>
        <mxCell id="gYJAZDq5HR4Z8izXJF9J-4" value="CPU Cache Memory&lt;div&gt;&lt;br&gt;&lt;/div&gt;&lt;div&gt;&lt;span&gt;count = 1001&lt;/span&gt;&lt;/div&gt;" style="rounded=0;whiteSpace=wrap;html=1;fontStyle=1" parent="1" vertex="1">
          <mxGeometry x="176" y="310" width="130" height="60" as="geometry" />
        </mxCell>
        <mxCell id="gYJAZDq5HR4Z8izXJF9J-5" value="Thread&lt;div&gt;&lt;br&gt;&lt;/div&gt;&lt;div&gt;&lt;br&gt;&lt;/div&gt;" style="rounded=0;whiteSpace=wrap;html=1;fontStyle=0" parent="1" vertex="1">
          <mxGeometry x="176" y="190" width="130" height="60" as="geometry" />
        </mxCell>
        <mxCell id="gYJAZDq5HR4Z8izXJF9J-6" value="CPU" style="rounded=0;whiteSpace=wrap;html=1;verticalAlign=top;" parent="1" vertex="1">
          <mxGeometry x="346" y="155" width="150" height="115" as="geometry" />
        </mxCell>
        <mxCell id="gYJAZDq5HR4Z8izXJF9J-7" value="CPU Cache Memory&lt;div&gt;&lt;br&gt;&lt;/div&gt;&lt;div&gt;count = 1001&lt;/div&gt;" style="rounded=0;whiteSpace=wrap;html=1;fontStyle=1" parent="1" vertex="1">
          <mxGeometry x="356" y="310" width="130" height="60" as="geometry" />
        </mxCell>
        <mxCell id="gYJAZDq5HR4Z8izXJF9J-8" value="Thread&lt;div&gt;&lt;br&gt;&lt;/div&gt;&lt;div&gt;&lt;br&gt;&lt;/div&gt;" style="rounded=0;whiteSpace=wrap;html=1;" parent="1" vertex="1">
          <mxGeometry x="356" y="190" width="130" height="60" as="geometry" />
        </mxCell>
        <mxCell id="gYJAZDq5HR4Z8izXJF9J-9" value="" style="rounded=1;whiteSpace=wrap;html=1;strokeColor=#FF3333;fillColor=none;" parent="1" vertex="1">
          <mxGeometry x="280" y="410" width="100" height="20" as="geometry" />
        </mxCell>
        <mxCell id="gYJAZDq5HR4Z8izXJF9J-10" value="" style="rounded=1;whiteSpace=wrap;html=1;strokeColor=#FF3333;fillColor=none;" parent="1" vertex="1">
          <mxGeometry x="191" y="345" width="100" height="20" as="geometry" />
        </mxCell>
        <mxCell id="gYJAZDq5HR4Z8izXJF9J-11" value="⑧" style="text;html=1;align=center;verticalAlign=middle;whiteSpace=wrap;rounded=0;fontSize=20;fontStyle=1;fontColor=#FF3333;" parent="1" vertex="1">
          <mxGeometry x="306" y="377" width="36" height="25" as="geometry" />
        </mxCell>
        <mxCell id="gYJAZDq5HR4Z8izXJF9J-12" value="" style="rounded=1;whiteSpace=wrap;html=1;strokeColor=#FF3333;fillColor=none;" parent="1" vertex="1">
          <mxGeometry x="370" y="343" width="100" height="20" as="geometry" />
        </mxCell>
        <mxCell id="gYJAZDq5HR4Z8izXJF9J-13" style="rounded=0;orthogonalLoop=1;jettySize=auto;html=1;exitX=0.75;exitY=1;exitDx=0;exitDy=0;entryX=0.19;entryY=-0.05;entryDx=0;entryDy=0;entryPerimeter=0;strokeColor=#FF3333;endArrow=block;endFill=1;" parent="1" source="gYJAZDq5HR4Z8izXJF9J-10" target="gYJAZDq5HR4Z8izXJF9J-9" edge="1">
          <mxGeometry relative="1" as="geometry" />
        </mxCell>
        <mxCell id="gYJAZDq5HR4Z8izXJF9J-14" style="rounded=0;orthogonalLoop=1;jettySize=auto;html=1;exitX=0.25;exitY=1;exitDx=0;exitDy=0;entryX=0.83;entryY=0.05;entryDx=0;entryDy=0;entryPerimeter=0;strokeColor=#FF3333;endArrow=block;endFill=1;" parent="1" source="gYJAZDq5HR4Z8izXJF9J-12" target="gYJAZDq5HR4Z8izXJF9J-9" edge="1">
          <mxGeometry relative="1" as="geometry" />
        </mxCell>
        <mxCell id="gYJAZDq5HR4Z8izXJF9J-15" value="플러시" style="text;html=1;align=center;verticalAlign=middle;whiteSpace=wrap;rounded=0;fontColor=#FF3333;fontStyle=1" parent="1" vertex="1">
          <mxGeometry x="230" y="375" width="60" height="30" as="geometry" />
        </mxCell>
        <mxCell id="gYJAZDq5HR4Z8izXJF9J-16" value="플러시" style="text;html=1;align=center;verticalAlign=middle;whiteSpace=wrap;rounded=0;fontColor=#FF3333;fontStyle=1" parent="1" vertex="1">
          <mxGeometry x="381" y="373" width="60" height="30" as="geometry" />
        </mxCell>
      </root>
    </mxGraphModel>
  </diagram>
</mxfile>
